<?xml version="1.0" encoding="UTF-8"?>
<svg width="772" height="250" viewBox="0 0 772 250" xmlns="http://www.w3.org/2000/svg">
  <defs>
    <linearGradient id="bannerGradient772" x1="0%" y1="0%" x2="100%" y2="0%">
      <stop offset="0%" style="stop-color:#0073aa;stop-opacity:1" />
      <stop offset="50%" style="stop-color:#2271b1;stop-opacity:1" />
      <stop offset="100%" style="stop-color:#005a87;stop-opacity:1" />
    </linearGradient>
    <filter id="glow772" x="-20%" y="-20%" width="140%" height="140%">
      <feGaussianBlur stdDeviation="2" result="coloredBlur"/>
      <feMerge>
        <feMergeNode in="coloredBlur"/>
        <feMergeNode in="SourceGraphic"/>
      </feMerge>
    </filter>
    <pattern id="dots772" x="0" y="0" width="30" height="30" patternUnits="userSpaceOnUse">
      <circle cx="15" cy="15" r="1" fill="white" opacity="0.08"/>
    </pattern>
  </defs>

  <!-- Background -->
  <rect width="772" height="250" fill="url(#bannerGradient772)"/>

  <!-- Subtle pattern overlay -->
  <rect width="772" height="250" fill="url(#dots772)"/>

  <!-- Main Clickwise logo on the left -->
  <g transform="translate(30, 60)">
    <!-- Background circle for logo -->
    <circle cx="65" cy="65" r="60" fill="white" opacity="0.95" stroke="#0073aa" stroke-width="2"/>

    <!-- Clickwise logo scaled for smaller banner -->
    <g transform="translate(16, 16) scale(0.7, 0.7)">
      <path fill="#0073aa" d="M127.29 118.47c.91-2.62 4.71-7.47 10.12-12.69 6.8-6.56 15.9-13.49 23.29-18.39-9.95 26.6-9.53 39.61 30.46 57.28-8.67.04-34.1 0-43.73 0-7.81-4.95-22.3-19.93-20.13-26.2Z"/>

      <path fill="#2271b1" d="M113.68 42.32c8.45 0 14.93-7.08 14.93-15.53 0-6.19-3.36-11.53-9.08-13.9-5.72-2.37-12.52-1.27-16.67 3.32-3.91 4.33-5.68 10.95-3.32 16.67 2.37 5.72 7.95 9.44 14.13 9.44Zm24.03-25.52c15.38.04 48.87 11.91 48.87 18 0 12.63-13.28 34-19.32 39.03 3.1-7.58 6.5-17.77 6.54-26.73-9.85 2.38-21.94 7.12-32.89 14.25-11.78 7.68-22.36 18-28.79 29.71-6.75 12.27-8.49 23.37-5.37 32.95 2.54 7.81 8.48 14.63 16.69 20.66H82.18c-5.46-5.46-9.15-12.24-9.03-23.63.07-7.17 1.64-16.23 6.46-25.84-25.96 27.78-20.91 44.54-30.62 46.43-9.49 1.84-25.15-13.11-31.29-19.56 2.55 6.95 12.06 17.92 20.77 22.6H3.93c-5.91-22.5-5.03-54.5 1.79-77.44 7.12 4.9 16.15 15.05 21.43 22.46 11.09-27.4 40.19-55.7 59.47-64.98C87.59 10.67 98.99-.03 113.09 0c11.29-.02 20.69 6.64 24.63 16.8Z"/>

      <circle cx="117.09" cy="27.09" r="7.59" fill="#005a87"/>
    </g>
  </g>

  <!-- Main title -->
  <g transform="translate(180, 70)">
    <text x="0" y="35" font-family="Arial, sans-serif" font-size="40" font-weight="bold" fill="white" filter="url(#glow772)">Clickwise Analytics</text>
    <text x="0" y="65" font-family="Arial, sans-serif" font-size="18" font-weight="300" fill="white" opacity="0.9">WordPress Event Tracking Plugin</text>
    <text x="0" y="85" font-family="Arial, sans-serif" font-size="14" font-weight="300" fill="white" opacity="0.8">Track user interactions and custom events</text>
    <text x="0" y="105" font-family="Arial, sans-serif" font-size="12" font-weight="300" fill="white" opacity="0.7">Seamless Clickwise Analytics integration</text>
  </g>

  <!-- Feature icons on the right -->
  <g transform="translate(550, 40)">
    <!-- Analytics -->
    <g transform="translate(0, 0)">
      <circle cx="25" cy="25" r="22" fill="white" opacity="0.12"/>
      <text x="25" y="55" font-family="Arial, sans-serif" font-size="10" font-weight="500" fill="white" text-anchor="middle" opacity="0.7">Analytics</text>
      <g transform="translate(10, 10)">
        <rect x="3" y="22" width="4" height="8" rx="2" fill="white" opacity="0.9"/>
        <rect x="9" y="17" width="4" height="13" rx="2" fill="white" opacity="0.9"/>
        <rect x="15" y="12" width="4" height="18" rx="2" fill="white" opacity="0.9"/>
        <rect x="21" y="19" width="4" height="11" rx="2" fill="white" opacity="0.9"/>
        <rect x="27" y="8" width="4" height="22" rx="2" fill="white" opacity="0.9"/>
      </g>
    </g>

    <!-- Events -->
    <g transform="translate(70, 0)">
      <circle cx="25" cy="25" r="22" fill="white" opacity="0.12"/>
      <text x="25" y="55" font-family="Arial, sans-serif" font-size="10" font-weight="500" fill="white" text-anchor="middle" opacity="0.7">Events</text>
      <g transform="translate(12, 12)">
        <path d="M6,3 L6,20 L10,17 L15,24 L19,20 L14,12 L19,12 Z" fill="white" opacity="0.9"/>
        <circle cx="22" cy="8" r="1.5" fill="#FF6B35"/>
      </g>
    </g>

    <!-- WordPress -->
    <g transform="translate(0, 80)">
      <circle cx="25" cy="25" r="22" fill="white" opacity="0.12"/>
      <text x="25" y="55" font-family="Arial, sans-serif" font-size="10" font-weight="500" fill="white" text-anchor="middle" opacity="0.7">WordPress</text>
      <g transform="translate(12, 12)">
        <circle cx="13" cy="13" r="11" stroke="white" stroke-width="2" fill="none" opacity="0.9"/>
        <circle cx="13" cy="13" r="2" fill="white"/>
        <path d="M13,2 L13,24 M2,13 L24,13" stroke="white" stroke-width="1.5" opacity="0.6"/>
      </g>
    </g>

    <!-- Privacy -->
    <g transform="translate(70, 80)">
      <circle cx="25" cy="25" r="22" fill="white" opacity="0.12"/>
      <text x="25" y="55" font-family="Arial, sans-serif" font-size="10" font-weight="500" fill="white" text-anchor="middle" opacity="0.7">Privacy</text>
      <g transform="translate(12, 12)">
        <path d="M13,3 L20,6 L20,16 C20,21 17,24 13,25 C9,24 6,21 6,16 L6,6 Z" fill="white" opacity="0.9"/>
        <path d="M13,8 L16,11 L12,15 L10,13" stroke="#0073aa" stroke-width="1.5" fill="none"/>
      </g>
    </g>
  </g>

  <!-- Webspirio branding bottom -->
  <g transform="translate(30, 210)">
    <!-- Webspirio simplified logo -->
    <g transform="scale(0.8, 0.8)">
      <rect x="0" y="5" width="8" height="8" rx="1.5" fill="white" opacity="0.8"/>
      <rect x="10" y="3" width="6" height="12" rx="1" fill="white" opacity="0.8"/>
      <rect x="18" y="1" width="5" height="16" rx="0.5" fill="white" opacity="0.8"/>
      <text x="26" y="12" font-family="Arial, sans-serif" font-size="9" font-weight="bold" fill="white" opacity="0.8">Webspirio</text>
    </g>
    <text x="0" y="25" font-family="Arial, sans-serif" font-size="10" font-weight="300" fill="white" opacity="0.6">webspirio.com</text>
  </g>

  <!-- Key features right side -->
  <g transform="translate(650, 210)">
    <text x="0" y="0" font-family="Arial, sans-serif" font-size="10" font-weight="300" fill="white" opacity="0.7" text-anchor="end">✓ Self-hosted</text>
    <text x="0" y="15" font-family="Arial, sans-serif" font-size="10" font-weight="300" fill="white" opacity="0.7" text-anchor="end">✓ GDPR Ready</text>
    <text x="0" y="30" font-family="Arial, sans-serif" font-size="10" font-weight="300" fill="white" opacity="0.7" text-anchor="end">✓ Real-time</text>
  </g>
</svg>