<?xml version="1.0" encoding="UTF-8"?>
<svg width="256" height="256" viewBox="0 0 256 256" xmlns="http://www.w3.org/2000/svg">
  <defs>
    <linearGradient id="bgGradient256" x1="0%" y1="0%" x2="100%" y2="100%">
      <stop offset="0%" style="stop-color:#0073aa;stop-opacity:1" />
      <stop offset="100%" style="stop-color:#005a87;stop-opacity:1" />
    </linearGradient>
    <filter id="shadow256" x="-20%" y="-20%" width="140%" height="140%">
      <feDropShadow dx="3" dy="3" stdDeviation="5" flood-opacity="0.2"/>
    </filter>
  </defs>

  <!-- Background circle -->
  <circle cx="128" cy="128" r="112" fill="url(#bgGradient256)" stroke="white" stroke-width="8" filter="url(#shadow256)"/>

  <!-- Clickwise logo adapted for high-res icon -->
  <g transform="translate(48, 48) scale(0.8, 0.8)">
    <!-- Main shape from clickwise logo -->
    <path fill="#FFF" d="M127.29 118.47c.91-2.62 4.71-7.47 10.12-12.69 6.8-6.56 15.9-13.49 23.29-18.39-9.95 26.6-9.53 39.61 30.46 57.28-8.67.04-34.1 0-43.73 0-7.81-4.95-22.3-19.93-20.13-26.2Z"/>

    <!-- Central element with better visibility -->
    <path fill="#FFF" d="M113.68 42.32c8.45 0 14.93-7.08 14.93-15.53 0-6.19-3.36-11.53-9.08-13.9-5.72-2.37-12.52-1.27-16.67 3.32-3.91 4.33-5.68 10.95-3.32 16.67 2.37 5.72 7.95 9.44 14.13 9.44Zm24.03-25.52c15.38.04 48.87 11.91 48.87 18 0 12.63-13.28 34-19.32 39.03 3.1-7.58 6.5-17.77 6.54-26.73-9.85 2.38-21.94 7.12-32.89 14.25-11.78 7.68-22.36 18-28.79 29.71-6.75 12.27-8.49 23.37-5.37 32.95 2.54 7.81 8.48 14.63 16.69 20.66H82.18c-5.46-5.46-9.15-12.24-9.03-23.63.07-7.17 1.64-16.23 6.46-25.84-25.96 27.78-20.91 44.54-30.62 46.43-9.49 1.84-25.15-13.11-31.29-19.56 2.55 6.95 12.06 17.92 20.77 22.6H3.93c-5.91-22.5-5.03-54.5 1.79-77.44 7.12 4.9 16.15 15.05 21.43 22.46 11.09-27.4 40.19-55.7 59.47-64.98C87.59 10.67 98.99-.03 113.09 0c11.29-.02 20.69 6.64 24.63 16.8Z"/>

    <!-- Central circle with better visibility -->
    <circle cx="117.09" cy="27.09" r="7.59" fill="#FFF"/>
  </g>

  <!-- Larger "R" monogram in corner -->
  <g transform="translate(176, 32)">
    <text x="0" y="40" font-family="Arial, sans-serif" font-size="36" font-weight="bold" fill="white" opacity="0.4">R</text>
  </g>
</svg>