<svg width="24" height="24" viewBox="0 0 24 24" fill="none" xmlns="http://www.w3.org/2000/svg">
<path d="M18.5477 9.94531C18.5376 9.94769 18.5277 9.95154 18.518 9.95688C18.3365 10.0564 18.2011 10.1283 18.1117 10.1726C17.8469 10.3037 17.5731 10.4078 17.2903 10.4847C17.124 10.5301 16.9307 10.561 16.7604 10.5903C16.636 10.6119 16.5026 10.6303 16.3602 10.6455C16.0936 10.6742 15.8273 10.7028 15.5615 10.7313" stroke="#2DB1FA" stroke-width="0.0697927"/>
<path d="M15.5612 10.7285C15.3622 10.742 15.1638 10.7594 14.9662 10.7807C14.6047 10.8197 14.423 10.8393 14.4212 10.8395C13.2792 10.952 12.1374 11.0672 10.9959 11.1848C10.5957 11.226 10.2039 11.2922 9.82031 11.3833" stroke="#2BA9F7" stroke-width="0.0697927"/>
<path d="M6.49082 12.7562C6.47201 12.7501 6.45684 12.7393 6.44531 12.7239C6.43924 12.7156 6.44025 12.7082 6.44834 12.7019C6.54868 12.6222 6.64407 12.5367 6.73449 12.4456C7.01639 12.1613 7.26826 11.8993 7.5359 11.6364C7.91217 11.2666 8.27266 10.9086 8.61738 10.5627C9.11422 10.0646 10.5934 8.63203 13.055 6.26493C13.1895 6.13556 13.3347 5.9976 13.4904 5.85103C13.9867 5.38342 14.5644 4.83492 15.2237 4.20551C15.2731 4.15843 15.3438 4.09355 15.4358 4.01087C15.5064 3.94757 15.5769 3.8821 15.6473 3.81445" stroke="#34BEFC" stroke-width="0.0697927"/>
<path d="M7.45418 19.0721L7.42566 18.9591C7.42343 18.9496 7.42556 18.9412 7.43203 18.9338C7.70534 18.6294 7.94769 18.3528 8.15909 18.104C8.28472 17.956 8.41955 17.8089 8.56358 17.6628C8.66311 17.5615 8.81433 17.4089 9.01724 17.205C9.66742 16.5508 10.2299 16.0017 10.7047 15.5577C10.8674 15.4056 11.0111 15.2666 11.1359 15.1408C11.5057 14.7679 11.8814 14.3914 12.2629 14.0112C12.4409 13.8336 12.5837 13.6935 12.6914 13.5908C13.0727 13.2267 13.4073 12.9025 13.6952 12.6182C13.8478 12.4678 14.056 12.2818 14.2174 12.1201C14.5959 11.7411 14.9764 11.364 15.359 10.9887C15.4322 10.9171 15.4997 10.8304 15.5614 10.7285" stroke="#1873F5" stroke-width="0.0697927"/>
<path d="M18.5474 9.94398C18.5373 9.94635 18.5273 9.95021 18.5176 9.95555C18.3362 10.055 18.2007 10.1269 18.1113 10.1713C17.8465 10.3024 17.5727 10.4064 17.2899 10.4834C17.1236 10.5288 16.9303 10.5596 16.7601 10.589C16.6357 10.6106 16.5022 10.629 16.3598 10.6442C16.0932 10.6729 15.827 10.7015 15.5611 10.7299C15.3621 10.7434 15.1637 10.7608 14.9661 10.7822C14.6046 10.8211 14.4229 10.8407 14.4211 10.8409C13.2791 10.9535 12.1374 11.0686 10.9958 11.1863C10.5956 11.2274 10.2038 11.2936 9.82024 11.3848C9.70797 11.3563 9.59266 11.3561 9.47431 11.3842C9.24572 11.4382 9.01854 11.4973 8.79277 11.5616C8.18527 11.7341 7.62915 11.9803 7.12442 12.3001C6.94033 12.4168 6.72913 12.5688 6.49082 12.7561C6.47201 12.75 6.45684 12.7392 6.44531 12.7238C6.43924 12.7155 6.44025 12.7082 6.44834 12.7018C6.54868 12.6221 6.64407 12.5367 6.73449 12.4455C7.01639 12.1612 7.26826 11.8993 7.5359 11.6364C7.91217 11.2665 8.27266 10.9086 8.61738 10.5626C9.11422 10.0645 10.5934 8.63195 13.055 6.26485C13.1895 6.13549 13.3347 5.99752 13.4904 5.85095C13.9867 5.38335 14.5644 4.83484 15.2237 4.20544C15.2731 4.15836 15.3438 4.09348 15.4358 4.0108C15.5064 3.9475 15.5769 3.88203 15.6473 3.81438C15.6983 3.80746 15.7524 3.80093 15.8097 3.7948C16.0532 3.76809 16.3342 3.73704 16.6526 3.70163C17.0279 3.6597 17.4848 3.55496 18.0233 3.38742C18.5341 3.22839 19.0313 2.98272 19.5148 2.65041C20.0373 2.2912 20.475 1.8592 20.8278 1.35441C20.9044 1.24463 20.9666 1.13396 21.0144 1.0224C21.0239 1.00025 21.0332 1.00035 21.0423 1.0227C21.0431 1.02487 21.0432 1.03229 21.0426 1.04495C21.0378 1.16482 21.0351 1.25274 21.0347 1.30872C21.0216 2.86641 21.0112 3.81834 21.0035 4.16449C20.9897 4.77471 20.9549 5.29137 20.8991 5.71447C20.8378 6.17871 20.7346 6.63316 20.5896 7.07782C20.4538 7.4938 20.3003 7.8535 20.1289 8.15693C20.0096 8.36838 19.8595 8.59398 19.6786 8.83371C19.5678 8.98088 19.4368 9.13131 19.2857 9.285C19.0589 9.51583 18.8205 9.72659 18.5704 9.91727C18.5609 9.92439 18.5532 9.9333 18.5474 9.94398Z" fill="#A2F4FD"/>
<path d="M15.6474 3.81445C15.577 3.8821 15.5065 3.94757 15.4359 4.01087C15.3439 4.09355 15.2732 4.15843 15.2238 4.20551C14.5645 4.83492 13.9868 5.38342 13.4905 5.85103C13.3348 5.9976 13.1896 6.13556 13.0551 6.26493C10.5935 8.63203 9.11432 10.0646 8.61747 10.5627C8.27276 10.9086 7.91226 11.2666 7.53599 11.6364C7.26835 11.8993 7.01649 12.1613 6.73459 12.4456C6.64416 12.5367 6.54878 12.6222 6.44844 12.7019C6.44034 12.7082 6.43933 12.7156 6.4454 12.7239C6.45693 12.7393 6.47211 12.7501 6.49092 12.7562C6.3392 12.8875 6.19506 13.0259 6.05851 13.1713C5.54143 13.722 5.11631 14.3273 4.78312 14.9871C4.6757 15.1998 4.54825 15.4856 4.40078 15.8446C4.28668 16.1231 4.15357 16.4973 4.00144 16.9673C3.86489 17.3898 3.62841 18.1424 3.29198 19.2249C3.14754 19.6892 3.04194 20.0403 2.97519 20.2782C2.97215 20.2889 2.96993 20.2888 2.96851 20.2779C2.96082 20.2146 2.95779 20.1506 2.95941 20.086C2.96871 19.6811 2.97306 19.2657 2.97245 18.8398C2.97003 17.1259 2.97316 15.7822 2.98186 14.8088C2.98348 14.6066 2.98419 14.4089 2.98399 14.2157C2.98156 12.7753 2.98034 12.0532 2.98034 12.0495C2.98136 11.9656 2.98419 11.7994 2.98884 11.551C2.99208 11.3805 3.00128 11.2142 3.01645 11.0522C3.14977 9.61461 3.62062 8.31881 4.429 7.16483C5.04783 6.28125 5.84043 5.58775 6.80681 5.08434C7.2025 4.87823 7.61671 4.71643 8.04942 4.59894C8.40425 4.50261 8.72692 4.43506 9.01742 4.39629C9.07001 4.38937 9.22831 4.37097 9.49231 4.3411C9.67519 4.32053 9.83338 4.3049 9.9669 4.29422C10.3159 4.26613 10.7458 4.22697 11.2569 4.17673C11.4211 4.16051 12.0845 4.107 13.2469 4.01621C14.0447 3.9539 14.8449 3.88665 15.6474 3.81445Z" fill="#00B8DB"/>
<path d="M18.5466 9.94531C18.5401 10.0062 18.5384 10.048 18.5415 10.0705C18.5993 10.4818 18.615 10.8947 18.5885 11.3093C18.5492 11.9199 18.4447 12.5105 18.2747 13.0812C18.0927 13.6924 17.8159 14.27 17.4445 14.8139C17.3417 14.9646 17.2026 15.1373 17.0273 15.332C16.4185 16.0077 15.6716 16.4401 14.7863 16.6292C14.6429 16.6598 14.4427 16.6877 14.1858 16.7128C13.0756 16.8216 12.3925 16.8888 12.1366 16.9143C11.9604 16.9319 11.8209 16.9493 11.7181 16.9665C11.6255 16.9819 11.5328 16.9965 11.4402 17.0101C11.319 17.0279 11.2263 17.0433 11.1619 17.0564C9.70883 17.3476 8.47258 18.0204 7.45321 19.0749L7.42468 18.9618C7.42246 18.9523 7.42458 18.9439 7.43105 18.9366C7.70436 18.6322 7.94671 18.3556 8.15811 18.1067C8.28374 17.9588 8.41857 17.8117 8.56261 17.6655C8.66214 17.5643 8.81336 17.4117 9.01626 17.2077C9.66644 16.5536 10.2289 16.0045 10.7037 15.5604C10.8664 15.4083 11.0101 15.2694 11.1349 15.1436C11.5047 14.7707 11.8804 14.3942 12.2619 14.014C12.4399 13.8364 12.5828 13.6962 12.6904 13.5936C13.0717 13.2294 13.4063 12.9052 13.6942 12.621C13.8468 12.4706 14.055 12.2845 14.2164 12.1228C14.5949 11.7438 14.9754 11.3667 15.358 10.9915C15.4312 10.9199 15.4987 10.8331 15.5604 10.7313C15.8262 10.7028 16.0924 10.6742 16.3591 10.6455C16.5015 10.6303 16.6349 10.6119 16.7593 10.5903C16.9295 10.561 17.1228 10.5301 17.2891 10.4847C17.5719 10.4078 17.8457 10.3037 18.1106 10.1726C18.2 10.1283 18.3354 10.0564 18.5169 9.95688C18.5266 9.95154 18.5365 9.94769 18.5466 9.94531Z" fill="#00B8DB"/>
<path d="M15.5607 10.7305C15.499 10.8323 15.4315 10.9191 15.3583 10.9907C14.9757 11.3659 14.5952 11.743 14.2167 12.122C14.0553 12.2837 13.8471 12.4697 13.6945 12.6202C13.4066 12.9044 13.072 13.2286 12.6907 13.5928C12.5831 13.6954 12.4402 13.8356 12.2622 14.0132C11.8807 14.3934 11.505 14.7699 11.1352 15.1427C11.0104 15.2685 10.8667 15.4075 10.704 15.5596C10.2292 16.0037 9.66673 16.5528 9.01655 17.2069C8.81364 17.4108 8.66242 17.5634 8.56289 17.6647C8.41886 17.8109 8.28403 17.958 8.1584 18.1059C7.947 18.3548 7.70465 18.6314 7.43134 18.9358C7.42487 18.9431 7.42274 18.9515 7.42497 18.961L7.45349 19.0741C7.19637 19.3417 6.97415 19.6096 6.78682 19.8778C6.53577 20.237 6.33458 20.5668 6.18326 20.867C6.01607 21.1994 5.88042 21.4539 5.74357 21.7847C5.67863 21.942 5.5524 22.243 5.36487 22.6876C5.32603 22.7799 5.26261 22.8858 5.22225 22.9908H4.8478C4.84638 22.6401 4.84517 22.289 4.84415 21.9376C4.8391 20.1451 4.83849 18.7688 4.84233 17.8086C4.84294 17.6096 4.85649 17.3802 4.883 17.1203C4.90707 16.8839 4.96928 16.5564 5.06961 16.1379C5.1477 15.8121 5.29245 15.4163 5.50385 14.9505C5.62179 14.6906 5.81276 14.3677 6.07675 13.9817C6.19611 13.8069 6.31759 13.6488 6.44119 13.5076C6.84276 13.0485 7.27092 12.6643 7.72568 12.3549C8.23547 12.0082 8.79422 11.7244 9.40192 11.5037C9.46019 11.4825 9.52957 11.462 9.61009 11.4423C9.67826 11.4256 9.74816 11.4067 9.81977 11.3853C10.2033 11.2941 10.5952 11.2279 10.9953 11.1868C12.1369 11.0691 13.2787 10.954 14.4206 10.8414C14.4224 10.8412 14.6041 10.8217 14.9656 10.7827C15.1633 10.7613 15.3616 10.7439 15.5607 10.7305Z" fill="#007595"/>
</svg>
