<svg width="725" height="440" viewBox="0 0 725 440" fill="none" xmlns="http://www.w3.org/2000/svg">
<g clip-path="url(#clip0_320_2953)">
<rect width="725" height="440" fill="#053345"/>
<g filter="url(#filter0_f_320_2953)">
<ellipse cx="383.5" cy="454" rx="338.5" ry="287" fill="#0092B8"/>
</g>
<ellipse cx="362.263" cy="1489" rx="1260.26" ry="1178" fill="#053345"/>
<path d="M180.36 105.76L158.4 190H133.56L120.12 134.56L106.2 190H81.36L60 105.76H81.96L94.08 167.08L109.08 105.76H131.64L146.04 167.08L158.28 105.76H180.36ZM251.371 155.44C251.371 157.36 251.251 159.36 251.011 161.44H204.571C204.891 165.6 206.211 168.8 208.531 171.04C210.931 173.2 213.851 174.28 217.291 174.28C222.411 174.28 225.971 172.12 227.971 167.8H249.811C248.691 172.2 246.651 176.16 243.691 179.68C240.811 183.2 237.171 185.96 232.771 187.96C228.371 189.96 223.451 190.96 218.011 190.96C211.451 190.96 205.611 189.56 200.491 186.76C195.371 183.96 191.371 179.96 188.491 174.76C185.611 169.56 184.171 163.48 184.171 156.52C184.171 149.56 185.571 143.48 188.371 138.28C191.251 133.08 195.251 129.08 200.371 126.28C205.491 123.48 211.371 122.08 218.011 122.08C224.491 122.08 230.251 123.44 235.291 126.16C240.331 128.88 244.251 132.76 247.051 137.8C249.931 142.84 251.371 148.72 251.371 155.44ZM230.371 150.04C230.371 146.52 229.171 143.72 226.771 141.64C224.371 139.56 221.371 138.52 217.771 138.52C214.331 138.52 211.411 139.52 209.011 141.52C206.691 143.52 205.251 146.36 204.691 150.04H230.371ZM280.316 132.52C282.236 129.4 284.996 126.88 288.596 124.96C292.196 123.04 296.316 122.08 300.956 122.08C306.476 122.08 311.476 123.48 315.956 126.28C320.436 129.08 323.956 133.08 326.516 138.28C329.156 143.48 330.476 149.52 330.476 156.4C330.476 163.28 329.156 169.36 326.516 174.64C323.956 179.84 320.436 183.88 315.956 186.76C311.476 189.56 306.476 190.96 300.956 190.96C296.236 190.96 292.116 190.04 288.596 188.2C285.076 186.28 282.316 183.76 280.316 180.64V190H259.796V101.2H280.316V132.52ZM309.596 156.4C309.596 151.28 308.156 147.28 305.276 144.4C302.476 141.44 298.996 139.96 294.836 139.96C290.756 139.96 287.276 141.44 284.396 144.4C281.596 147.36 280.196 151.4 280.196 156.52C280.196 161.64 281.596 165.68 284.396 168.64C287.276 171.6 290.756 173.08 294.836 173.08C298.916 173.08 302.396 171.6 305.276 168.64C308.156 165.6 309.596 161.52 309.596 156.4ZM366.082 190.96C360.242 190.96 355.042 189.96 350.482 187.96C345.922 185.96 342.322 183.24 339.682 179.8C337.042 176.28 335.562 172.36 335.242 168.04H355.522C355.762 170.36 356.842 172.24 358.762 173.68C360.682 175.12 363.042 175.84 365.842 175.84C368.402 175.84 370.362 175.36 371.722 174.4C373.162 173.36 373.882 172.04 373.882 170.44C373.882 168.52 372.882 167.12 370.882 166.24C368.882 165.28 365.642 164.24 361.162 163.12C356.362 162 352.362 160.84 349.162 159.64C345.962 158.36 343.202 156.4 340.882 153.76C338.562 151.04 337.402 147.4 337.402 142.84C337.402 139 338.442 135.52 340.522 132.4C342.682 129.2 345.802 126.68 349.882 124.84C354.042 123 358.962 122.08 364.642 122.08C373.042 122.08 379.642 124.16 384.442 128.32C389.322 132.48 392.122 138 392.842 144.88H373.882C373.562 142.56 372.522 140.72 370.762 139.36C369.082 138 366.842 137.32 364.042 137.32C361.642 137.32 359.802 137.8 358.522 138.76C357.242 139.64 356.602 140.88 356.602 142.48C356.602 144.4 357.602 145.84 359.602 146.8C361.682 147.76 364.882 148.72 369.202 149.68C374.162 150.96 378.202 152.24 381.322 153.52C384.442 154.72 387.162 156.72 389.482 159.52C391.882 162.24 393.122 165.92 393.202 170.56C393.202 174.48 392.082 178 389.842 181.12C387.682 184.16 384.522 186.56 380.362 188.32C376.282 190.08 371.522 190.96 366.082 190.96ZM423.876 132.52C425.876 129.4 428.636 126.88 432.156 124.96C435.676 123.04 439.796 122.08 444.516 122.08C450.036 122.08 455.036 123.48 459.516 126.28C463.996 129.08 467.516 133.08 470.076 138.28C472.716 143.48 474.036 149.52 474.036 156.4C474.036 163.28 472.716 169.36 470.076 174.64C467.516 179.84 463.996 183.88 459.516 186.76C455.036 189.56 450.036 190.96 444.516 190.96C439.876 190.96 435.756 190 432.156 188.08C428.636 186.16 425.876 183.68 423.876 180.64V221.92H403.356V123.04H423.876V132.52ZM453.156 156.4C453.156 151.28 451.716 147.28 448.836 144.4C446.036 141.44 442.556 139.96 438.396 139.96C434.316 139.96 430.836 141.44 427.956 144.4C425.156 147.36 423.756 151.4 423.756 156.52C423.756 161.64 425.156 165.68 427.956 168.64C430.836 171.6 434.316 173.08 438.396 173.08C442.476 173.08 445.956 171.6 448.836 168.64C451.716 165.6 453.156 161.52 453.156 156.4ZM492.721 116.08C489.121 116.08 486.161 115.04 483.841 112.96C481.601 110.8 480.481 108.16 480.481 105.04C480.481 101.84 481.601 99.2 483.841 97.12C486.161 94.96 489.121 93.88 492.721 93.88C496.241 93.88 499.121 94.96 501.361 97.12C503.681 99.2 504.841 101.84 504.841 105.04C504.841 108.16 503.681 110.8 501.361 112.96C499.121 115.04 496.241 116.08 492.721 116.08ZM502.921 123.04V190H482.401V123.04H502.921ZM535.912 134.2C538.312 130.52 541.312 127.64 544.912 125.56C548.512 123.4 552.512 122.32 556.912 122.32V144.04H551.272C546.152 144.04 542.312 145.16 539.752 147.4C537.192 149.56 535.912 153.4 535.912 158.92V190H515.392V123.04H535.912V134.2ZM574.64 116.08C571.04 116.08 568.08 115.04 565.76 112.96C563.52 110.8 562.4 108.16 562.4 105.04C562.4 101.84 563.52 99.2 565.76 97.12C568.08 94.96 571.04 93.88 574.64 93.88C578.16 93.88 581.04 94.96 583.28 97.12C585.6 99.2 586.76 101.84 586.76 105.04C586.76 108.16 585.6 110.8 583.28 112.96C581.04 115.04 578.16 116.08 574.64 116.08ZM584.84 123.04V190H564.32V123.04H584.84ZM627.79 190.96C621.23 190.96 615.31 189.56 610.03 186.76C604.83 183.96 600.71 179.96 597.67 174.76C594.71 169.56 593.23 163.48 593.23 156.52C593.23 149.64 594.75 143.6 597.79 138.4C600.83 133.12 604.99 129.08 610.27 126.28C615.55 123.48 621.47 122.08 628.03 122.08C634.59 122.08 640.51 123.48 645.79 126.28C651.07 129.08 655.23 133.12 658.27 138.4C661.31 143.6 662.83 149.64 662.83 156.52C662.83 163.4 661.27 169.48 658.15 174.76C655.11 179.96 650.91 183.96 645.55 186.76C640.27 189.56 634.35 190.96 627.79 190.96ZM627.79 173.2C631.71 173.2 635.03 171.76 637.75 168.88C640.55 166 641.95 161.88 641.95 156.52C641.95 151.16 640.59 147.04 637.87 144.16C635.23 141.28 631.95 139.84 628.03 139.84C624.03 139.84 620.71 141.28 618.07 144.16C615.43 146.96 614.11 151.08 614.11 156.52C614.11 161.88 615.39 166 617.95 168.88C620.59 171.76 623.87 173.2 627.79 173.2Z" fill="#00D3F2"/>
<path d="M158.699 243.272V245.048H151.427V250.688H157.331V252.464H151.427V260H149.243V243.272H158.699ZM163.52 248.984C163.904 248.232 164.448 247.648 165.152 247.232C165.872 246.816 166.744 246.608 167.768 246.608V248.864H167.192C164.744 248.864 163.52 250.192 163.52 252.848V260H161.336V246.848H163.52V248.984ZM176.025 260.216C174.793 260.216 173.673 259.936 172.665 259.376C171.673 258.816 170.889 258.024 170.313 257C169.753 255.96 169.473 254.76 169.473 253.4C169.473 252.056 169.761 250.872 170.337 249.848C170.929 248.808 171.729 248.016 172.737 247.472C173.745 246.912 174.873 246.632 176.121 246.632C177.369 246.632 178.497 246.912 179.505 247.472C180.513 248.016 181.305 248.8 181.881 249.824C182.473 250.848 182.769 252.04 182.769 253.4C182.769 254.76 182.465 255.96 181.857 257C181.265 258.024 180.457 258.816 179.433 259.376C178.409 259.936 177.273 260.216 176.025 260.216ZM176.025 258.296C176.809 258.296 177.545 258.112 178.233 257.744C178.921 257.376 179.473 256.824 179.889 256.088C180.321 255.352 180.537 254.456 180.537 253.4C180.537 252.344 180.329 251.448 179.913 250.712C179.497 249.976 178.953 249.432 178.281 249.08C177.609 248.712 176.881 248.528 176.097 248.528C175.297 248.528 174.561 248.712 173.889 249.08C173.233 249.432 172.705 249.976 172.305 250.712C171.905 251.448 171.705 252.344 171.705 253.4C171.705 254.472 171.897 255.376 172.281 256.112C172.681 256.848 173.209 257.4 173.865 257.768C174.521 258.12 175.241 258.296 176.025 258.296ZM201.457 246.608C202.481 246.608 203.393 246.824 204.193 247.256C204.993 247.672 205.625 248.304 206.089 249.152C206.553 250 206.785 251.032 206.785 252.248V260H204.625V252.56C204.625 251.248 204.297 250.248 203.641 249.56C203.001 248.856 202.129 248.504 201.025 248.504C199.889 248.504 198.985 248.872 198.313 249.608C197.641 250.328 197.305 251.376 197.305 252.752V260H195.145V252.56C195.145 251.248 194.817 250.248 194.161 249.56C193.521 248.856 192.649 248.504 191.545 248.504C190.409 248.504 189.505 248.872 188.833 249.608C188.161 250.328 187.825 251.376 187.825 252.752V260H185.641V246.848H187.825V248.744C188.257 248.056 188.833 247.528 189.553 247.16C190.289 246.792 191.097 246.608 191.977 246.608C193.081 246.608 194.057 246.856 194.905 247.352C195.753 247.848 196.385 248.576 196.801 249.536C197.169 248.608 197.777 247.888 198.625 247.376C199.473 246.864 200.417 246.608 201.457 246.608ZM218.95 242.24V260H216.766V242.24H218.95ZM221.856 253.376C221.856 252.032 222.128 250.856 222.672 249.848C223.216 248.824 223.96 248.032 224.904 247.472C225.864 246.912 226.928 246.632 228.096 246.632C229.248 246.632 230.248 246.88 231.096 247.376C231.944 247.872 232.576 248.496 232.992 249.248V246.848H235.2V260H232.992V257.552C232.56 258.32 231.912 258.96 231.048 259.472C230.2 259.968 229.208 260.216 228.072 260.216C226.904 260.216 225.848 259.928 224.904 259.352C223.96 258.776 223.216 257.968 222.672 256.928C222.128 255.888 221.856 254.704 221.856 253.376ZM232.992 253.4C232.992 252.408 232.792 251.544 232.392 250.808C231.992 250.072 231.448 249.512 230.76 249.128C230.088 248.728 229.344 248.528 228.528 248.528C227.712 248.528 226.968 248.72 226.296 249.104C225.624 249.488 225.088 250.048 224.688 250.784C224.288 251.52 224.088 252.384 224.088 253.376C224.088 254.384 224.288 255.264 224.688 256.016C225.088 256.752 225.624 257.32 226.296 257.72C226.968 258.104 227.712 258.296 228.528 258.296C229.344 258.296 230.088 258.104 230.76 257.72C231.448 257.32 231.992 256.752 232.392 256.016C232.792 255.264 232.992 254.392 232.992 253.4ZM245.299 246.608C246.899 246.608 248.195 247.096 249.187 248.072C250.179 249.032 250.675 250.424 250.675 252.248V260H248.515V252.56C248.515 251.248 248.187 250.248 247.531 249.56C246.875 248.856 245.979 248.504 244.843 248.504C243.691 248.504 242.771 248.864 242.083 249.584C241.411 250.304 241.075 251.352 241.075 252.728V260H238.891V246.848H241.075V248.72C241.507 248.048 242.091 247.528 242.827 247.16C243.579 246.792 244.403 246.608 245.299 246.608ZM253.427 253.376C253.427 252.032 253.699 250.856 254.243 249.848C254.787 248.824 255.531 248.032 256.475 247.472C257.435 246.912 258.507 246.632 259.691 246.632C260.715 246.632 261.667 246.872 262.547 247.352C263.427 247.816 264.099 248.432 264.563 249.2V242.24H266.771V260H264.563V257.528C264.131 258.312 263.491 258.96 262.643 259.472C261.795 259.968 260.803 260.216 259.667 260.216C258.499 260.216 257.435 259.928 256.475 259.352C255.531 258.776 254.787 257.968 254.243 256.928C253.699 255.888 253.427 254.704 253.427 253.376ZM264.563 253.4C264.563 252.408 264.363 251.544 263.963 250.808C263.563 250.072 263.019 249.512 262.331 249.128C261.659 248.728 260.915 248.528 260.099 248.528C259.283 248.528 258.539 248.72 257.867 249.104C257.195 249.488 256.659 250.048 256.259 250.784C255.859 251.52 255.659 252.384 255.659 253.376C255.659 254.384 255.859 255.264 256.259 256.016C256.659 256.752 257.195 257.32 257.867 257.72C258.539 258.104 259.283 258.296 260.099 258.296C260.915 258.296 261.659 258.104 262.331 257.72C263.019 257.32 263.563 256.752 263.963 256.016C264.363 255.264 264.563 254.392 264.563 253.4ZM271.589 244.712C271.173 244.712 270.821 244.568 270.533 244.28C270.245 243.992 270.101 243.64 270.101 243.224C270.101 242.808 270.245 242.456 270.533 242.168C270.821 241.88 271.173 241.736 271.589 241.736C271.989 241.736 272.325 241.88 272.597 242.168C272.885 242.456 273.029 242.808 273.029 243.224C273.029 243.64 272.885 243.992 272.597 244.28C272.325 244.568 271.989 244.712 271.589 244.712ZM272.645 246.848V260H270.461V246.848H272.645ZM282.776 246.608C284.376 246.608 285.672 247.096 286.664 248.072C287.656 249.032 288.152 250.424 288.152 252.248V260H285.992V252.56C285.992 251.248 285.664 250.248 285.008 249.56C284.352 248.856 283.456 248.504 282.32 248.504C281.168 248.504 280.248 248.864 279.56 249.584C278.888 250.304 278.552 251.352 278.552 252.728V260H276.368V246.848H278.552V248.72C278.984 248.048 279.568 247.528 280.304 247.16C281.056 246.792 281.88 246.608 282.776 246.608ZM297.143 246.632C298.279 246.632 299.271 246.88 300.119 247.376C300.983 247.872 301.623 248.496 302.039 249.248V246.848H304.247V260.288C304.247 261.488 303.991 262.552 303.479 263.48C302.967 264.424 302.231 265.16 301.271 265.688C300.327 266.216 299.223 266.48 297.959 266.48C296.231 266.48 294.791 266.072 293.639 265.256C292.487 264.44 291.807 263.328 291.599 261.92H293.759C293.999 262.72 294.495 263.36 295.247 263.84C295.999 264.336 296.903 264.584 297.959 264.584C299.159 264.584 300.135 264.208 300.887 263.456C301.655 262.704 302.039 261.648 302.039 260.288V257.528C301.607 258.296 300.967 258.936 300.119 259.448C299.271 259.96 298.279 260.216 297.143 260.216C295.975 260.216 294.911 259.928 293.951 259.352C293.007 258.776 292.263 257.968 291.719 256.928C291.175 255.888 290.903 254.704 290.903 253.376C290.903 252.032 291.175 250.856 291.719 249.848C292.263 248.824 293.007 248.032 293.951 247.472C294.911 246.912 295.975 246.632 297.143 246.632ZM302.039 253.4C302.039 252.408 301.839 251.544 301.439 250.808C301.039 250.072 300.495 249.512 299.807 249.128C299.135 248.728 298.391 248.528 297.575 248.528C296.759 248.528 296.015 248.72 295.343 249.104C294.671 249.488 294.135 250.048 293.735 250.784C293.335 251.52 293.135 252.384 293.135 253.376C293.135 254.384 293.335 255.264 293.735 256.016C294.135 256.752 294.671 257.32 295.343 257.72C296.015 258.104 296.759 258.296 297.575 258.296C298.391 258.296 299.135 258.104 299.807 257.72C300.495 257.32 301.039 256.752 301.439 256.016C301.839 255.264 302.039 254.392 302.039 253.4ZM316.52 249.272C316.952 248.52 317.592 247.896 318.44 247.4C319.304 246.888 320.304 246.632 321.44 246.632C322.608 246.632 323.664 246.912 324.608 247.472C325.568 248.032 326.32 248.824 326.864 249.848C327.408 250.856 327.68 252.032 327.68 253.376C327.68 254.704 327.408 255.888 326.864 256.928C326.32 257.968 325.568 258.776 324.608 259.352C323.664 259.928 322.608 260.216 321.44 260.216C320.32 260.216 319.328 259.968 318.464 259.472C317.616 258.96 316.968 258.328 316.52 257.576V266.24H314.336V246.848H316.52V249.272ZM325.448 253.376C325.448 252.384 325.248 251.52 324.848 250.784C324.448 250.048 323.904 249.488 323.216 249.104C322.544 248.72 321.8 248.528 320.984 248.528C320.184 248.528 319.44 248.728 318.752 249.128C318.08 249.512 317.536 250.08 317.12 250.832C316.72 251.568 316.52 252.424 316.52 253.4C316.52 254.392 316.72 255.264 317.12 256.016C317.536 256.752 318.08 257.32 318.752 257.72C319.44 258.104 320.184 258.296 320.984 258.296C321.8 258.296 322.544 258.104 323.216 257.72C323.904 257.32 324.448 256.752 324.848 256.016C325.248 255.264 325.448 254.384 325.448 253.376ZM329.739 253.376C329.739 252.032 330.011 250.856 330.555 249.848C331.099 248.824 331.843 248.032 332.787 247.472C333.747 246.912 334.811 246.632 335.979 246.632C337.131 246.632 338.131 246.88 338.979 247.376C339.827 247.872 340.459 248.496 340.875 249.248V246.848H343.083V260H340.875V257.552C340.443 258.32 339.795 258.96 338.931 259.472C338.083 259.968 337.091 260.216 335.955 260.216C334.787 260.216 333.731 259.928 332.787 259.352C331.843 258.776 331.099 257.968 330.555 256.928C330.011 255.888 329.739 254.704 329.739 253.376ZM340.875 253.4C340.875 252.408 340.675 251.544 340.275 250.808C339.875 250.072 339.331 249.512 338.643 249.128C337.971 248.728 337.227 248.528 336.411 248.528C335.595 248.528 334.851 248.72 334.179 249.104C333.507 249.488 332.971 250.048 332.571 250.784C332.171 251.52 331.971 252.384 331.971 253.376C331.971 254.384 332.171 255.264 332.571 256.016C332.971 256.752 333.507 257.32 334.179 257.72C334.851 258.104 335.595 258.296 336.411 258.296C337.227 258.296 337.971 258.104 338.643 257.72C339.331 257.32 339.875 256.752 340.275 256.016C340.675 255.264 340.875 254.392 340.875 253.4ZM352.198 246.632C353.334 246.632 354.326 246.88 355.174 247.376C356.038 247.872 356.678 248.496 357.094 249.248V246.848H359.302V260.288C359.302 261.488 359.046 262.552 358.534 263.48C358.022 264.424 357.286 265.16 356.326 265.688C355.382 266.216 354.278 266.48 353.014 266.48C351.286 266.48 349.846 266.072 348.694 265.256C347.542 264.44 346.862 263.328 346.654 261.92H348.814C349.054 262.72 349.55 263.36 350.302 263.84C351.054 264.336 351.958 264.584 353.014 264.584C354.214 264.584 355.19 264.208 355.942 263.456C356.71 262.704 357.094 261.648 357.094 260.288V257.528C356.662 258.296 356.022 258.936 355.174 259.448C354.326 259.96 353.334 260.216 352.198 260.216C351.03 260.216 349.966 259.928 349.006 259.352C348.062 258.776 347.318 257.968 346.774 256.928C346.23 255.888 345.958 254.704 345.958 253.376C345.958 252.032 346.23 250.856 346.774 249.848C347.318 248.824 348.062 248.032 349.006 247.472C349.966 246.912 351.03 246.632 352.198 246.632ZM357.094 253.4C357.094 252.408 356.894 251.544 356.494 250.808C356.094 250.072 355.55 249.512 354.862 249.128C354.19 248.728 353.446 248.528 352.63 248.528C351.814 248.528 351.07 248.72 350.398 249.104C349.726 249.488 349.19 250.048 348.79 250.784C348.39 251.52 348.19 252.384 348.19 253.376C348.19 254.384 348.39 255.264 348.79 256.016C349.19 256.752 349.726 257.32 350.398 257.72C351.07 258.104 351.814 258.296 352.63 258.296C353.446 258.296 354.19 258.104 354.862 257.72C355.55 257.32 356.094 256.752 356.494 256.016C356.894 255.264 357.094 254.392 357.094 253.4ZM374.993 252.92C374.993 253.336 374.969 253.776 374.921 254.24H364.409C364.489 255.536 364.929 256.552 365.729 257.288C366.545 258.008 367.529 258.368 368.681 258.368C369.625 258.368 370.409 258.152 371.033 257.72C371.673 257.272 372.121 256.68 372.377 255.944H374.729C374.377 257.208 373.673 258.24 372.617 259.04C371.561 259.824 370.249 260.216 368.681 260.216C367.433 260.216 366.313 259.936 365.321 259.376C364.345 258.816 363.577 258.024 363.017 257C362.457 255.96 362.177 254.76 362.177 253.4C362.177 252.04 362.449 250.848 362.993 249.824C363.537 248.8 364.297 248.016 365.273 247.472C366.265 246.912 367.401 246.632 368.681 246.632C369.929 246.632 371.033 246.904 371.993 247.448C372.953 247.992 373.689 248.744 374.201 249.704C374.729 250.648 374.993 251.72 374.993 252.92ZM372.737 252.464C372.737 251.632 372.553 250.92 372.185 250.328C371.817 249.72 371.313 249.264 370.673 248.96C370.049 248.64 369.353 248.48 368.585 248.48C367.481 248.48 366.537 248.832 365.753 249.536C364.985 250.24 364.545 251.216 364.433 252.464H372.737ZM382.531 260.216C381.523 260.216 380.619 260.048 379.819 259.712C379.019 259.36 378.387 258.88 377.923 258.272C377.459 257.648 377.203 256.936 377.155 256.136H379.411C379.475 256.792 379.779 257.328 380.323 257.744C380.883 258.16 381.611 258.368 382.507 258.368C383.339 258.368 383.995 258.184 384.475 257.816C384.955 257.448 385.195 256.984 385.195 256.424C385.195 255.848 384.939 255.424 384.427 255.152C383.915 254.864 383.123 254.584 382.051 254.312C381.075 254.056 380.275 253.8 379.651 253.544C379.043 253.272 378.515 252.88 378.067 252.368C377.635 251.84 377.419 251.152 377.419 250.304C377.419 249.632 377.619 249.016 378.019 248.456C378.419 247.896 378.987 247.456 379.723 247.136C380.459 246.8 381.299 246.632 382.243 246.632C383.699 246.632 384.875 247 385.771 247.736C386.667 248.472 387.147 249.48 387.211 250.76H385.027C384.979 250.072 384.699 249.52 384.187 249.104C383.691 248.688 383.019 248.48 382.171 248.48C381.387 248.48 380.763 248.648 380.299 248.984C379.835 249.32 379.603 249.76 379.603 250.304C379.603 250.736 379.739 251.096 380.011 251.384C380.299 251.656 380.651 251.88 381.067 252.056C381.499 252.216 382.091 252.4 382.843 252.608C383.787 252.864 384.555 253.12 385.147 253.376C385.739 253.616 386.243 253.984 386.659 254.48C387.091 254.976 387.315 255.624 387.331 256.424C387.331 257.144 387.131 257.792 386.731 258.368C386.331 258.944 385.763 259.4 385.027 259.736C384.307 260.056 383.475 260.216 382.531 260.216ZM399.477 248.648V256.4C399.477 257.04 399.613 257.496 399.885 257.768C400.157 258.024 400.629 258.152 401.301 258.152H402.909V260H400.941C399.725 260 398.813 259.72 398.205 259.16C397.597 258.6 397.293 257.68 397.293 256.4V248.648H395.589V246.848H397.293V243.536H399.477V246.848H402.909V248.648H399.477ZM411.291 260.216C410.059 260.216 408.939 259.936 407.931 259.376C406.939 258.816 406.155 258.024 405.579 257C405.019 255.96 404.739 254.76 404.739 253.4C404.739 252.056 405.027 250.872 405.603 249.848C406.195 248.808 406.995 248.016 408.003 247.472C409.011 246.912 410.139 246.632 411.387 246.632C412.635 246.632 413.763 246.912 414.771 247.472C415.779 248.016 416.571 248.8 417.147 249.824C417.739 250.848 418.035 252.04 418.035 253.4C418.035 254.76 417.731 255.96 417.123 257C416.531 258.024 415.723 258.816 414.699 259.376C413.675 259.936 412.539 260.216 411.291 260.216ZM411.291 258.296C412.075 258.296 412.811 258.112 413.499 257.744C414.187 257.376 414.739 256.824 415.155 256.088C415.587 255.352 415.803 254.456 415.803 253.4C415.803 252.344 415.595 251.448 415.179 250.712C414.763 249.976 414.219 249.432 413.547 249.08C412.875 248.712 412.147 248.528 411.363 248.528C410.563 248.528 409.827 248.712 409.155 249.08C408.499 249.432 407.971 249.976 407.571 250.712C407.171 251.448 406.971 252.344 406.971 253.4C406.971 254.472 407.163 255.376 407.547 256.112C407.947 256.848 408.475 257.4 409.131 257.768C409.787 258.12 410.507 258.296 411.291 258.296ZM433.041 260.216C431.809 260.216 430.689 259.936 429.681 259.376C428.689 258.816 427.905 258.024 427.329 257C426.769 255.96 426.489 254.76 426.489 253.4C426.489 252.056 426.777 250.872 427.353 249.848C427.945 248.808 428.745 248.016 429.753 247.472C430.761 246.912 431.889 246.632 433.137 246.632C434.385 246.632 435.513 246.912 436.521 247.472C437.529 248.016 438.321 248.8 438.897 249.824C439.489 250.848 439.785 252.04 439.785 253.4C439.785 254.76 439.481 255.96 438.873 257C438.281 258.024 437.473 258.816 436.449 259.376C435.425 259.936 434.289 260.216 433.041 260.216ZM433.041 258.296C433.825 258.296 434.561 258.112 435.249 257.744C435.937 257.376 436.489 256.824 436.905 256.088C437.337 255.352 437.553 254.456 437.553 253.4C437.553 252.344 437.345 251.448 436.929 250.712C436.513 249.976 435.969 249.432 435.297 249.08C434.625 248.712 433.897 248.528 433.113 248.528C432.313 248.528 431.577 248.712 430.905 249.08C430.249 249.432 429.721 249.976 429.321 250.712C428.921 251.448 428.721 252.344 428.721 253.4C428.721 254.472 428.913 255.376 429.297 256.112C429.697 256.848 430.225 257.4 430.881 257.768C431.537 258.12 432.257 258.296 433.041 258.296ZM449.065 246.608C450.665 246.608 451.961 247.096 452.953 248.072C453.945 249.032 454.441 250.424 454.441 252.248V260H452.281V252.56C452.281 251.248 451.953 250.248 451.297 249.56C450.641 248.856 449.745 248.504 448.609 248.504C447.457 248.504 446.537 248.864 445.849 249.584C445.177 250.304 444.841 251.352 444.841 252.728V260H442.657V246.848H444.841V248.72C445.273 248.048 445.857 247.528 446.593 247.16C447.345 246.792 448.169 246.608 449.065 246.608ZM460.192 242.24V260H458.008V242.24H460.192ZM465.042 244.712C464.626 244.712 464.274 244.568 463.986 244.28C463.698 243.992 463.554 243.64 463.554 243.224C463.554 242.808 463.698 242.456 463.986 242.168C464.274 241.88 464.626 241.736 465.042 241.736C465.442 241.736 465.778 241.88 466.05 242.168C466.338 242.456 466.482 242.808 466.482 243.224C466.482 243.64 466.338 243.992 466.05 244.28C465.778 244.568 465.442 244.712 465.042 244.712ZM466.098 246.848V260H463.914V246.848H466.098ZM476.229 246.608C477.829 246.608 479.125 247.096 480.117 248.072C481.109 249.032 481.605 250.424 481.605 252.248V260H479.445V252.56C479.445 251.248 479.117 250.248 478.461 249.56C477.805 248.856 476.909 248.504 475.773 248.504C474.621 248.504 473.701 248.864 473.013 249.584C472.341 250.304 472.005 251.352 472.005 252.728V260H469.821V246.848H472.005V248.72C472.437 248.048 473.021 247.528 473.757 247.16C474.509 246.792 475.333 246.608 476.229 246.608ZM497.172 252.92C497.172 253.336 497.148 253.776 497.1 254.24H486.588C486.668 255.536 487.108 256.552 487.908 257.288C488.724 258.008 489.708 258.368 490.86 258.368C491.804 258.368 492.588 258.152 493.212 257.72C493.852 257.272 494.3 256.68 494.556 255.944H496.908C496.556 257.208 495.852 258.24 494.796 259.04C493.74 259.824 492.428 260.216 490.86 260.216C489.612 260.216 488.492 259.936 487.5 259.376C486.524 258.816 485.756 258.024 485.196 257C484.636 255.96 484.356 254.76 484.356 253.4C484.356 252.04 484.628 250.848 485.172 249.824C485.716 248.8 486.476 248.016 487.452 247.472C488.444 246.912 489.58 246.632 490.86 246.632C492.108 246.632 493.212 246.904 494.172 247.448C495.132 247.992 495.868 248.744 496.38 249.704C496.908 250.648 497.172 251.72 497.172 252.92ZM494.916 252.464C494.916 251.632 494.732 250.92 494.364 250.328C493.996 249.72 493.492 249.264 492.852 248.96C492.228 248.64 491.532 248.48 490.764 248.48C489.66 248.48 488.716 248.832 487.932 249.536C487.164 250.24 486.724 251.216 486.612 252.464H494.916ZM511.109 260.216C510.101 260.216 509.197 260.048 508.397 259.712C507.597 259.36 506.965 258.88 506.501 258.272C506.037 257.648 505.781 256.936 505.733 256.136H507.989C508.053 256.792 508.357 257.328 508.901 257.744C509.461 258.16 510.189 258.368 511.085 258.368C511.917 258.368 512.573 258.184 513.053 257.816C513.533 257.448 513.773 256.984 513.773 256.424C513.773 255.848 513.517 255.424 513.005 255.152C512.493 254.864 511.701 254.584 510.629 254.312C509.653 254.056 508.853 253.8 508.229 253.544C507.621 253.272 507.093 252.88 506.645 252.368C506.213 251.84 505.997 251.152 505.997 250.304C505.997 249.632 506.197 249.016 506.597 248.456C506.997 247.896 507.565 247.456 508.301 247.136C509.037 246.8 509.877 246.632 510.821 246.632C512.277 246.632 513.453 247 514.349 247.736C515.245 248.472 515.725 249.48 515.789 250.76H513.605C513.557 250.072 513.277 249.52 512.765 249.104C512.269 248.688 511.597 248.48 510.749 248.48C509.965 248.48 509.341 248.648 508.877 248.984C508.413 249.32 508.181 249.76 508.181 250.304C508.181 250.736 508.317 251.096 508.589 251.384C508.877 251.656 509.229 251.88 509.645 252.056C510.077 252.216 510.669 252.4 511.421 252.608C512.365 252.864 513.133 253.12 513.725 253.376C514.317 253.616 514.821 253.984 515.237 254.48C515.669 254.976 515.893 255.624 515.909 256.424C515.909 257.144 515.709 257.792 515.309 258.368C514.909 258.944 514.341 259.4 513.605 259.736C512.885 260.056 512.053 260.216 511.109 260.216ZM525.521 246.608C526.513 246.608 527.409 246.824 528.209 247.256C529.009 247.672 529.633 248.304 530.081 249.152C530.545 250 530.777 251.032 530.777 252.248V260H528.617V252.56C528.617 251.248 528.289 250.248 527.633 249.56C526.977 248.856 526.081 248.504 524.945 248.504C523.793 248.504 522.873 248.864 522.185 249.584C521.513 250.304 521.177 251.352 521.177 252.728V260H518.993V242.24H521.177V248.72C521.609 248.048 522.201 247.528 522.953 247.16C523.721 246.792 524.577 246.608 525.521 246.608ZM540.08 260.216C538.848 260.216 537.728 259.936 536.72 259.376C535.728 258.816 534.944 258.024 534.368 257C533.808 255.96 533.528 254.76 533.528 253.4C533.528 252.056 533.816 250.872 534.392 249.848C534.984 248.808 535.784 248.016 536.792 247.472C537.8 246.912 538.928 246.632 540.176 246.632C541.424 246.632 542.552 246.912 543.56 247.472C544.568 248.016 545.36 248.8 545.936 249.824C546.528 250.848 546.824 252.04 546.824 253.4C546.824 254.76 546.52 255.96 545.912 257C545.32 258.024 544.512 258.816 543.488 259.376C542.464 259.936 541.328 260.216 540.08 260.216ZM540.08 258.296C540.864 258.296 541.6 258.112 542.288 257.744C542.976 257.376 543.528 256.824 543.944 256.088C544.376 255.352 544.592 254.456 544.592 253.4C544.592 252.344 544.384 251.448 543.968 250.712C543.552 249.976 543.008 249.432 542.336 249.08C541.664 248.712 540.936 248.528 540.152 248.528C539.352 248.528 538.616 248.712 537.944 249.08C537.288 249.432 536.76 249.976 536.36 250.712C535.96 251.448 535.76 252.344 535.76 253.4C535.76 254.472 535.952 255.376 536.336 256.112C536.736 256.848 537.264 257.4 537.92 257.768C538.576 258.12 539.296 258.296 540.08 258.296ZM551.88 249.272C552.312 248.52 552.952 247.896 553.8 247.4C554.664 246.888 555.664 246.632 556.8 246.632C557.968 246.632 559.024 246.912 559.968 247.472C560.928 248.032 561.68 248.824 562.224 249.848C562.768 250.856 563.04 252.032 563.04 253.376C563.04 254.704 562.768 255.888 562.224 256.928C561.68 257.968 560.928 258.776 559.968 259.352C559.024 259.928 557.968 260.216 556.8 260.216C555.68 260.216 554.688 259.968 553.824 259.472C552.976 258.96 552.328 258.328 551.88 257.576V266.24H549.696V246.848H551.88V249.272ZM560.808 253.376C560.808 252.384 560.608 251.52 560.208 250.784C559.808 250.048 559.264 249.488 558.576 249.104C557.904 248.72 557.16 248.528 556.344 248.528C555.544 248.528 554.8 248.728 554.112 249.128C553.44 249.512 552.896 250.08 552.48 250.832C552.08 251.568 551.88 252.424 551.88 253.4C551.88 254.392 552.08 255.264 552.48 256.016C552.896 256.752 553.44 257.32 554.112 257.72C554.8 258.104 555.544 258.296 556.344 258.296C557.16 258.296 557.904 258.104 558.576 257.72C559.264 257.32 559.808 256.752 560.208 256.016C560.608 255.264 560.808 254.384 560.808 253.376ZM570.57 260.216C569.562 260.216 568.658 260.048 567.858 259.712C567.058 259.36 566.426 258.88 565.962 258.272C565.498 257.648 565.242 256.936 565.194 256.136H567.45C567.514 256.792 567.818 257.328 568.362 257.744C568.922 258.16 569.65 258.368 570.546 258.368C571.378 258.368 572.034 258.184 572.514 257.816C572.994 257.448 573.234 256.984 573.234 256.424C573.234 255.848 572.978 255.424 572.466 255.152C571.954 254.864 571.162 254.584 570.09 254.312C569.114 254.056 568.314 253.8 567.69 253.544C567.082 253.272 566.554 252.88 566.106 252.368C565.674 251.84 565.458 251.152 565.458 250.304C565.458 249.632 565.658 249.016 566.058 248.456C566.458 247.896 567.026 247.456 567.762 247.136C568.498 246.8 569.338 246.632 570.282 246.632C571.738 246.632 572.914 247 573.81 247.736C574.706 248.472 575.186 249.48 575.25 250.76H573.066C573.018 250.072 572.738 249.52 572.226 249.104C571.73 248.688 571.058 248.48 570.21 248.48C569.426 248.48 568.802 248.648 568.338 248.984C567.874 249.32 567.642 249.76 567.642 250.304C567.642 250.736 567.778 251.096 568.05 251.384C568.338 251.656 568.69 251.88 569.106 252.056C569.538 252.216 570.13 252.4 570.882 252.608C571.826 252.864 572.594 253.12 573.186 253.376C573.778 253.616 574.282 253.984 574.698 254.48C575.13 254.976 575.354 255.624 575.37 256.424C575.37 257.144 575.17 257.792 574.77 258.368C574.37 258.944 573.802 259.4 573.066 259.736C572.346 260.056 571.514 260.216 570.57 260.216Z" fill="#ECFEFF"/>
</g>
<defs>
<filter id="filter0_f_320_2953" x="-155" y="-33" width="1077" height="974" filterUnits="userSpaceOnUse" color-interpolation-filters="sRGB">
<feFlood flood-opacity="0" result="BackgroundImageFix"/>
<feBlend mode="normal" in="SourceGraphic" in2="BackgroundImageFix" result="shape"/>
<feGaussianBlur stdDeviation="100" result="effect1_foregroundBlur_320_2953"/>
</filter>
<clipPath id="clip0_320_2953">
<rect width="725" height="440" fill="white"/>
</clipPath>
</defs>
</svg>
